<svg width="448" height="29" viewBox="0 0 448 29" fill="none" xmlns="http://www.w3.org/2000/svg">
<g filter="url(#filter0_d_10_1664)">
<g clip-path="url(#clip0_10_1664)">
<path fill-rule="evenodd" clip-rule="evenodd" d="M19.6731 19.8057L12.6438 1.04807L12.6437 1.04801C12.6183 0.981722 12.544 0.948557 12.4776 0.974023L12.1415 1.10288C12.0752 1.12835 12.0421 1.20269 12.0675 1.26898L19.3942 19.9402C19.3992 19.9531 19.404 19.9659 19.4087 19.9784C19.4617 20.12 19.5026 20.2292 19.6488 20.1731C19.7951 20.117 19.7445 19.988 19.6879 19.8438C19.683 19.8312 19.678 19.8185 19.6731 19.8057ZM18.6072 20.2577L9.57426 2.34966L9.57404 2.34955C9.54258 2.28577 9.56866 2.20874 9.63245 2.17727L9.95498 2.01757C10.0188 1.98611 10.0957 2.01213 10.1273 2.07572L13.0194 8.03561L18.8723 20.0977C18.8784 20.1099 18.8845 20.1221 18.8906 20.1341C18.9604 20.2725 19.0229 20.3963 18.8823 20.4657C18.8261 20.4937 18.7841 20.4935 18.7499 20.4746C18.6986 20.4463 18.6644 20.3755 18.6247 20.2937C18.619 20.2819 18.6132 20.2699 18.6072 20.2577Z" fill="#29005F"/>
</g>
<g clip-path="url(#clip1_10_1664)">
<path fill-rule="evenodd" clip-rule="evenodd" d="M28.648 0.998222L35.6788 19.7553L35.6789 19.7554C35.7043 19.8217 35.7787 19.8548 35.845 19.8293L36.1811 19.7005C36.2475 19.675 36.2805 19.6006 36.2551 19.5343L28.9268 0.863751C28.9219 0.850814 28.9171 0.838039 28.9124 0.825517C28.8594 0.683976 28.8185 0.574798 28.6722 0.630893C28.526 0.687012 28.5766 0.815996 28.6331 0.960185C28.6381 0.97276 28.6431 0.985452 28.648 0.998222ZM29.7139 0.546179L38.7483 18.4534L38.7485 18.4536C38.78 18.5173 38.7539 18.5944 38.6901 18.6258L38.3676 18.7856C38.3038 18.817 38.2269 18.791 38.1953 18.7274L35.3026 12.7678L29.4487 0.706174C29.4426 0.693963 29.4365 0.681836 29.4305 0.669819C29.3606 0.531442 29.2982 0.407587 29.4387 0.338157C29.4949 0.310174 29.5369 0.310385 29.5711 0.329267C29.6224 0.357602 29.6567 0.428325 29.6963 0.510165C29.702 0.52197 29.7079 0.534006 29.7139 0.546179Z" fill="#29005F"/>
</g>
<g clip-path="url(#clip2_10_1664)">
<path fill-rule="evenodd" clip-rule="evenodd" d="M56.0075 19.8057L48.9782 1.04806L48.9781 1.048C48.9527 0.981715 48.8783 0.94855 48.812 0.974016L48.4759 1.10287C48.4095 1.12834 48.3765 1.20268 48.4019 1.26897L55.7286 19.9402C55.7335 19.9531 55.7383 19.9659 55.743 19.9784C55.796 20.12 55.8369 20.2291 55.9832 20.1731C56.1294 20.117 56.0788 19.988 56.0223 19.8438C56.0173 19.8312 56.0124 19.8185 56.0075 19.8057ZM54.9415 20.2577L45.9086 2.34966L45.9084 2.34955C45.877 2.28576 45.903 2.20873 45.9668 2.17727L46.2894 2.01757C46.3532 1.9861 46.4301 2.01212 46.4617 2.07572L49.3538 8.0356L55.2067 20.0977C55.2128 20.1099 55.2189 20.122 55.225 20.1341C55.2948 20.2724 55.3572 20.3963 55.2167 20.4657C55.1605 20.4937 55.1185 20.4935 55.0843 20.4746C55.033 20.4463 54.9987 20.3755 54.9591 20.2937C54.9534 20.2819 54.9476 20.2699 54.9415 20.2577Z" fill="#29005F"/>
</g>
<g clip-path="url(#clip3_10_1664)">
<path fill-rule="evenodd" clip-rule="evenodd" d="M63.9153 0.998244L70.9461 19.7553L70.9463 19.7554C70.9717 19.8217 71.046 19.8548 71.1124 19.8294L71.4485 19.7005C71.5148 19.675 71.5478 19.6007 71.5225 19.5344L64.1942 0.863773C64.1892 0.850836 64.1844 0.83806 64.1797 0.825538C64.1267 0.683997 64.0858 0.57482 63.9396 0.630915C63.7933 0.687033 63.8439 0.816016 63.9005 0.960204C63.9054 0.972781 63.9104 0.985474 63.9153 0.998244ZM64.9812 0.546201L74.0156 18.4535L74.0158 18.4536C74.0473 18.5174 74.0212 18.5944 73.9574 18.6259L73.6349 18.7856C73.5711 18.8171 73.4942 18.791 73.4626 18.7274L70.57 12.7678L64.716 0.706196C64.71 0.693985 64.7039 0.681858 64.6978 0.669841C64.628 0.531463 64.5655 0.407609 64.706 0.338179C64.7623 0.310195 64.8042 0.310408 64.8384 0.32929C64.8897 0.357626 64.924 0.428348 64.9637 0.510191C64.9694 0.521995 64.9752 0.534029 64.9812 0.546201Z" fill="#29005F"/>
</g>
<g clip-path="url(#clip4_10_1664)">
<path fill-rule="evenodd" clip-rule="evenodd" d="M92.3419 19.8057L85.3126 1.04807L85.3125 1.04801C85.2871 0.981721 85.2127 0.948556 85.1464 0.974022L84.8103 1.10288C84.7439 1.12835 84.7109 1.20269 84.7363 1.26898L92.063 19.9402C92.0679 19.9531 92.0727 19.9659 92.0774 19.9784C92.1304 20.12 92.1713 20.2292 92.3176 20.1731C92.4638 20.117 92.4132 19.988 92.3567 19.8438C92.3517 19.8312 92.3468 19.8185 92.3419 19.8057ZM91.2759 20.2577L82.243 2.34966L82.2428 2.34955C82.2113 2.28577 82.2374 2.20874 82.3012 2.17727L82.6237 2.01757C82.6875 1.98611 82.7645 2.01213 82.796 2.07572L85.6882 8.03561L91.5411 20.0977C91.5472 20.1099 91.5533 20.1221 91.5593 20.1341C91.6291 20.2725 91.6916 20.3963 91.5511 20.4657C91.4949 20.4937 91.4529 20.4935 91.4187 20.4746C91.3674 20.4463 91.3331 20.3755 91.2935 20.2937C91.2878 20.2819 91.2819 20.2699 91.2759 20.2577Z" fill="#29005F"/>
</g>
<g clip-path="url(#clip5_10_1664)">
<path fill-rule="evenodd" clip-rule="evenodd" d="M101.317 0.998222L108.348 19.7553L108.348 19.7554C108.373 19.8217 108.447 19.8548 108.514 19.8293L108.85 19.7005C108.916 19.675 108.949 19.6006 108.924 19.5343L101.596 0.863751C101.591 0.850813 101.586 0.838037 101.581 0.825515C101.528 0.683975 101.487 0.574798 101.341 0.630893C101.195 0.687011 101.245 0.815995 101.302 0.960185C101.307 0.97276 101.312 0.985452 101.317 0.998222ZM102.383 0.546179L111.417 18.4534L111.417 18.4536C111.449 18.5173 111.423 18.5944 111.359 18.6258L111.036 18.7856C110.973 18.817 110.896 18.791 110.864 18.7274L107.971 12.7678L102.117 0.706174C102.111 0.693963 102.105 0.681836 102.099 0.669819C102.029 0.531441 101.967 0.407587 102.107 0.338157C102.164 0.310174 102.206 0.310386 102.24 0.329268C102.291 0.357604 102.325 0.428326 102.365 0.510169C102.371 0.521973 102.377 0.534007 102.383 0.546179Z" fill="#29005F"/>
</g>
<g clip-path="url(#clip6_10_1664)">
<path fill-rule="evenodd" clip-rule="evenodd" d="M128.676 19.8058L121.647 1.04808L121.647 1.04801C121.621 0.981729 121.547 0.948563 121.481 0.97403L121.145 1.10289C121.078 1.12835 121.045 1.2027 121.071 1.26898L128.397 19.9402C128.402 19.9531 128.407 19.9659 128.412 19.9784C128.465 20.12 128.506 20.2292 128.652 20.1731C128.798 20.117 128.748 19.988 128.691 19.8438C128.686 19.8312 128.681 19.8185 128.676 19.8058ZM127.61 20.2577L118.577 2.34967L118.577 2.34956C118.546 2.28577 118.572 2.20875 118.636 2.17728L118.958 2.01758C119.022 1.98611 119.099 2.01214 119.13 2.07573L122.023 8.03561L127.875 20.0977C127.882 20.1099 127.888 20.1221 127.894 20.1341C127.963 20.2725 128.026 20.3963 127.885 20.4657C127.829 20.4937 127.787 20.4935 127.753 20.4746C127.702 20.4463 127.667 20.3756 127.628 20.2937C127.622 20.2819 127.616 20.2699 127.61 20.2577Z" fill="#29005F"/>
</g>
<g clip-path="url(#clip7_10_1664)">
<path fill-rule="evenodd" clip-rule="evenodd" d="M137.651 0.998215L144.682 19.7553L144.682 19.7554C144.707 19.8216 144.782 19.8548 144.848 19.8293L145.184 19.7004C145.251 19.675 145.284 19.6006 145.258 19.5343L137.93 0.863745C137.925 0.850808 137.92 0.838033 137.915 0.82551C137.862 0.683969 137.822 0.574791 137.675 0.630887C137.529 0.687005 137.58 0.815989 137.636 0.960178C137.641 0.972754 137.646 0.985446 137.651 0.998215ZM138.717 0.546173L147.751 18.4534L147.752 18.4535C147.783 18.5173 147.757 18.5944 147.693 18.6258L147.371 18.7856C147.307 18.817 147.23 18.791 147.198 18.7274L144.306 12.7678L138.452 0.706168C138.446 0.693957 138.44 0.68183 138.434 0.669813C138.364 0.531436 138.301 0.407581 138.442 0.338151C138.498 0.310167 138.54 0.31038 138.574 0.329261C138.626 0.357596 138.66 0.428319 138.699 0.510159C138.705 0.521964 138.711 0.534 138.717 0.546173Z" fill="#29005F"/>
</g>
<g clip-path="url(#clip8_10_1664)">
<path fill-rule="evenodd" clip-rule="evenodd" d="M165.011 19.8057L157.981 1.04807L157.981 1.04801C157.956 0.981721 157.881 0.948556 157.815 0.974022L157.479 1.10288C157.413 1.12835 157.38 1.20269 157.405 1.26898L164.732 19.9402C164.737 19.9531 164.741 19.9659 164.746 19.9784C164.799 20.12 164.84 20.2292 164.986 20.1731C165.133 20.117 165.082 19.988 165.025 19.8438C165.02 19.8312 165.016 19.8185 165.011 19.8057ZM163.945 20.2577L154.912 2.34966L154.912 2.34955C154.88 2.28577 154.906 2.20874 154.97 2.17727L155.293 2.01757C155.356 1.98611 155.433 2.01213 155.465 2.07572L158.357 8.03561L164.21 20.0977C164.216 20.1099 164.222 20.1221 164.228 20.1341C164.298 20.2725 164.36 20.3963 164.22 20.4657C164.164 20.4937 164.122 20.4935 164.087 20.4746C164.036 20.4463 164.002 20.3755 163.962 20.2937C163.957 20.2819 163.951 20.2699 163.945 20.2577Z" fill="#29005F"/>
</g>
<g clip-path="url(#clip9_10_1664)">
<path fill-rule="evenodd" clip-rule="evenodd" d="M173.986 0.998247L181.016 19.7553L181.017 19.7554C181.042 19.8217 181.116 19.8548 181.183 19.8294L181.519 19.7005C181.585 19.675 181.618 19.6007 181.593 19.5344L174.264 0.863776C174.259 0.85084 174.255 0.838065 174.25 0.825543C174.197 0.684001 174.156 0.574823 174.01 0.630918C173.864 0.687036 173.914 0.81602 173.971 0.96021C173.976 0.972785 173.981 0.985477 173.986 0.998247ZM175.051 0.546205L184.086 18.4535L184.086 18.4536C184.118 18.5174 184.091 18.5944 184.028 18.6259L183.705 18.7856C183.641 18.8171 183.564 18.791 183.533 18.7275L180.64 12.7678L174.786 0.7062C174.78 0.693989 174.774 0.681862 174.768 0.669845C174.698 0.531467 174.636 0.407613 174.776 0.338183C174.832 0.310199 174.874 0.310412 174.909 0.329294C174.96 0.35763 174.994 0.428352 175.034 0.510195C175.04 0.521999 175.045 0.534033 175.051 0.546205Z" fill="#29005F"/>
</g>
<g clip-path="url(#clip10_10_1664)">
<path fill-rule="evenodd" clip-rule="evenodd" d="M201.345 19.8057L194.316 1.04807L194.316 1.04801C194.29 0.981725 194.216 0.94856 194.15 0.974026L193.813 1.10288C193.747 1.12835 193.714 1.20269 193.739 1.26898L201.066 19.9402C201.071 19.9531 201.076 19.9659 201.081 19.9784C201.134 20.12 201.174 20.2292 201.321 20.1731C201.467 20.117 201.416 19.988 201.36 19.8438C201.355 19.8312 201.35 19.8185 201.345 19.8057ZM200.279 20.2577L191.246 2.34967L191.246 2.34956C191.215 2.28577 191.241 2.20874 191.304 2.17727L191.627 2.01758C191.691 1.98611 191.768 2.01213 191.799 2.07573L194.691 8.03561L200.544 20.0977C200.55 20.1099 200.556 20.1221 200.563 20.1341C200.632 20.2725 200.695 20.3963 200.554 20.4657C200.498 20.4937 200.456 20.4935 200.422 20.4746C200.371 20.4463 200.336 20.3755 200.297 20.2937C200.291 20.2819 200.285 20.2699 200.279 20.2577Z" fill="#29005F"/>
</g>
<g clip-path="url(#clip11_10_1664)" filter="url(#filter1_d_10_1664)">
<path fill-rule="evenodd" clip-rule="evenodd" d="M209.253 0.998237L216.284 19.7553L216.284 19.7554C216.309 19.8217 216.384 19.8548 216.45 19.8294L216.786 19.7005C216.852 19.675 216.885 19.6006 216.86 19.5344L209.532 0.863767C209.527 0.85083 209.522 0.838053 209.517 0.825531C209.464 0.683991 209.423 0.574814 209.277 0.630908C209.131 0.687027 209.181 0.816011 209.238 0.9602C209.243 0.972775 209.248 0.985467 209.253 0.998237ZM210.319 0.546194L219.353 18.4535L219.353 18.4536C219.385 18.5174 219.359 18.5944 219.295 18.6259L218.973 18.7856C218.909 18.8171 218.832 18.791 218.8 18.7274L215.908 12.7678L210.054 0.706189C210.048 0.693978 210.041 0.681851 210.035 0.669834C209.966 0.531456 209.903 0.407602 210.044 0.338173C210.1 0.310189 210.142 0.310401 210.176 0.329283C210.227 0.357619 210.262 0.428342 210.301 0.510185C210.307 0.521988 210.313 0.534022 210.319 0.546194Z" fill="#29005F"/>
</g>
<g clip-path="url(#clip12_10_1664)">
<path fill-rule="evenodd" clip-rule="evenodd" d="M237.679 19.8057L230.65 1.04807L230.65 1.04801C230.625 0.981724 230.55 0.948559 230.484 0.974025L230.148 1.10288C230.082 1.12835 230.048 1.20269 230.074 1.26898L237.401 19.9402C237.406 19.9531 237.41 19.9659 237.415 19.9784C237.468 20.12 237.509 20.2292 237.655 20.1731C237.801 20.117 237.751 19.988 237.694 19.8438C237.689 19.8312 237.684 19.8185 237.679 19.8057ZM236.614 20.2577L227.581 2.34967L227.58 2.34956C227.549 2.28577 227.575 2.20874 227.639 2.17727L227.961 2.01758C228.025 1.98611 228.102 2.01213 228.134 2.07573L231.026 8.03561L236.879 20.0977C236.885 20.1099 236.891 20.1221 236.897 20.1341C236.967 20.2725 237.029 20.3963 236.889 20.4657C236.832 20.4937 236.79 20.4935 236.756 20.4746C236.705 20.4463 236.671 20.3755 236.631 20.2937C236.625 20.2819 236.62 20.2699 236.614 20.2577Z" fill="#29005F"/>
</g>
<g clip-path="url(#clip13_10_1664)">
<path fill-rule="evenodd" clip-rule="evenodd" d="M246.654 0.998247L253.685 19.7553L253.685 19.7554C253.711 19.8217 253.785 19.8548 253.851 19.8294L254.187 19.7005C254.254 19.675 254.287 19.6007 254.261 19.5344L246.933 0.863776C246.928 0.850839 246.923 0.838063 246.919 0.825541C246.866 0.684 246.825 0.574823 246.679 0.630919C246.532 0.687036 246.583 0.81602 246.639 0.96021C246.644 0.972785 246.649 0.985477 246.654 0.998247ZM247.72 0.546205L256.755 18.4535L256.755 18.4536C256.786 18.5174 256.76 18.5944 256.696 18.6259L256.374 18.7856C256.31 18.8171 256.233 18.791 256.202 18.7275L253.309 12.7678L247.455 0.7062C247.449 0.693989 247.443 0.681862 247.437 0.669845C247.367 0.531467 247.304 0.407613 247.445 0.338183C247.501 0.310199 247.543 0.310412 247.577 0.329294C247.629 0.35763 247.663 0.428352 247.703 0.510195C247.708 0.521999 247.714 0.534033 247.72 0.546205Z" fill="#29005F"/>
</g>
<g clip-path="url(#clip14_10_1664)">
<path fill-rule="evenodd" clip-rule="evenodd" d="M274.014 19.8058L266.985 1.04808L266.984 1.04802C266.959 0.98173 266.885 0.948564 266.818 0.974031L266.482 1.10289C266.416 1.12836 266.383 1.2027 266.408 1.26899L273.735 19.9402C273.74 19.9531 273.745 19.9659 273.749 19.9784C273.802 20.12 273.843 20.2292 273.99 20.1731C274.136 20.117 274.085 19.988 274.029 19.8438C274.024 19.8312 274.019 19.8185 274.014 19.8058ZM272.948 20.2577L263.915 2.34966L263.915 2.34954C263.883 2.28576 263.909 2.20873 263.973 2.17726L264.296 2.01757C264.359 1.9861 264.436 2.01212 264.468 2.07572L267.36 8.0356L273.213 20.0977C273.219 20.1099 273.225 20.122 273.231 20.1341C273.301 20.2724 273.364 20.3963 273.223 20.4657C273.167 20.4937 273.125 20.4935 273.091 20.4746C273.039 20.4463 273.005 20.3755 272.965 20.2937C272.96 20.2819 272.954 20.2699 272.948 20.2577Z" fill="#29005F"/>
</g>
<g clip-path="url(#clip15_10_1664)">
<path fill-rule="evenodd" clip-rule="evenodd" d="M282.989 0.99822L290.02 19.7553L290.02 19.7554C290.045 19.8216 290.119 19.8548 290.186 19.8293L290.522 19.7005C290.588 19.675 290.621 19.6006 290.596 19.5343L283.268 0.863749C283.263 0.850812 283.258 0.838036 283.253 0.825514C283.2 0.683973 283.159 0.574796 283.013 0.630892C282.867 0.687009 282.917 0.815992 282.974 0.96018C282.979 0.972757 282.984 0.98545 282.989 0.99822ZM284.055 0.546178L293.089 18.4534L293.089 18.4536C293.121 18.5173 293.095 18.5944 293.031 18.6258L292.708 18.7856C292.645 18.817 292.568 18.791 292.536 18.7274L289.643 12.7678L283.789 0.706172C283.783 0.693962 283.777 0.681835 283.771 0.669818C283.701 0.531441 283.639 0.407586 283.779 0.338155C283.836 0.310172 283.878 0.310384 283.912 0.329266C283.963 0.357601 283.997 0.428323 284.037 0.510164C284.043 0.521969 284.049 0.534005 284.055 0.546178Z" fill="#29005F"/>
</g>
<g clip-path="url(#clip16_10_1664)">
<path fill-rule="evenodd" clip-rule="evenodd" d="M310.348 19.8057L303.319 1.04806L303.319 1.048C303.293 0.981711 303.219 0.948546 303.153 0.974012L302.817 1.10287C302.75 1.12834 302.717 1.20268 302.743 1.26897L310.069 19.9402C310.074 19.9531 310.079 19.9659 310.084 19.9784C310.137 20.12 310.178 20.2291 310.324 20.1731C310.47 20.117 310.42 19.988 310.363 19.8438C310.358 19.8312 310.353 19.8185 310.348 19.8057ZM309.282 20.2577L300.249 2.34965L300.249 2.34954C300.218 2.28576 300.244 2.20873 300.308 2.17726L300.63 2.01756C300.694 1.9861 300.771 2.01212 300.802 2.07571L303.695 8.0356L309.547 20.0977C309.553 20.1099 309.56 20.122 309.566 20.1341C309.635 20.2724 309.698 20.3963 309.557 20.4657C309.501 20.4937 309.459 20.4935 309.425 20.4746C309.374 20.4463 309.339 20.3755 309.3 20.2937C309.294 20.2819 309.288 20.2698 309.282 20.2577Z" fill="#29005F"/>
</g>
<g clip-path="url(#clip17_10_1664)">
<path fill-rule="evenodd" clip-rule="evenodd" d="M319.323 0.99822L326.354 19.7553L326.354 19.7554C326.379 19.8216 326.454 19.8548 326.52 19.8293L326.856 19.7005C326.923 19.675 326.956 19.6006 326.93 19.5343L319.602 0.86375C319.597 0.850813 319.592 0.838037 319.588 0.825515C319.534 0.683974 319.494 0.574796 319.347 0.630892C319.201 0.687009 319.252 0.815992 319.308 0.96018C319.313 0.972757 319.318 0.98545 319.323 0.99822ZM320.389 0.546178L329.423 18.4534L329.424 18.4536C329.455 18.5173 329.429 18.5944 329.365 18.6258L329.043 18.7856C328.979 18.817 328.902 18.791 328.87 18.7274L325.978 12.7678L320.124 0.706172C320.118 0.693962 320.112 0.681835 320.106 0.669818C320.036 0.531441 319.973 0.407586 320.114 0.338155C320.17 0.310172 320.212 0.310384 320.246 0.329266C320.298 0.357601 320.332 0.428323 320.371 0.510164C320.377 0.521969 320.383 0.534005 320.389 0.546178Z" fill="#29005F"/>
</g>
<g clip-path="url(#clip18_10_1664)">
<path fill-rule="evenodd" clip-rule="evenodd" d="M346.683 19.8057L339.653 1.04806L339.653 1.048C339.628 0.98171 339.553 0.948545 339.487 0.974011L339.151 1.10287C339.085 1.12834 339.052 1.20268 339.077 1.26897L346.404 19.9402C346.409 19.9531 346.413 19.9659 346.418 19.9784C346.471 20.12 346.512 20.2291 346.658 20.1731C346.805 20.117 346.754 19.988 346.697 19.8438C346.693 19.8312 346.688 19.8185 346.683 19.8057ZM345.617 20.2577L336.584 2.34965L336.584 2.34954C336.552 2.28575 336.578 2.20873 336.642 2.17726L336.965 2.01756C337.028 1.98609 337.105 2.01212 337.137 2.07571L340.029 8.03559L345.882 20.0977C345.888 20.1099 345.894 20.122 345.9 20.1341C345.97 20.2724 346.032 20.3963 345.892 20.4657C345.836 20.4937 345.794 20.4935 345.759 20.4746C345.708 20.4463 345.674 20.3755 345.634 20.2937C345.629 20.2819 345.623 20.2698 345.617 20.2577Z" fill="#29005F"/>
</g>
<g clip-path="url(#clip19_10_1664)">
<path fill-rule="evenodd" clip-rule="evenodd" d="M355.658 0.998221L362.688 19.7553L362.689 19.7554C362.714 19.8216 362.788 19.8548 362.855 19.8293L363.191 19.7005C363.257 19.675 363.29 19.6006 363.265 19.5343L355.936 0.863749C355.931 0.850812 355.927 0.838036 355.922 0.825514C355.869 0.683973 355.828 0.574796 355.682 0.630892C355.536 0.687009 355.586 0.815992 355.643 0.96018C355.648 0.972757 355.653 0.98545 355.658 0.998221ZM356.723 0.546178L365.758 18.4534L365.758 18.4536C365.79 18.5173 365.763 18.5944 365.7 18.6258L365.377 18.7856C365.313 18.817 365.236 18.791 365.205 18.7274L362.312 12.7678L356.458 0.706172C356.452 0.693962 356.446 0.681835 356.44 0.669818C356.37 0.531441 356.308 0.407586 356.448 0.338156C356.504 0.310172 356.546 0.310384 356.581 0.329266C356.632 0.357601 356.666 0.428324 356.706 0.510164C356.712 0.521969 356.717 0.534005 356.723 0.546178Z" fill="#29005F"/>
</g>
<g clip-path="url(#clip20_10_1664)">
<path fill-rule="evenodd" clip-rule="evenodd" d="M383.017 19.8057L375.988 1.04806L375.988 1.04799C375.962 0.981708 375.888 0.948543 375.822 0.97401L375.485 1.10287C375.419 1.12833 375.386 1.20268 375.411 1.26896L382.738 19.9402C382.743 19.9531 382.748 19.9659 382.753 19.9784C382.806 20.12 382.846 20.2291 382.993 20.1731C383.139 20.117 383.088 19.988 383.032 19.8438C383.027 19.8312 383.022 19.8185 383.017 19.8057ZM381.951 20.2577L372.918 2.34965L372.918 2.34954C372.887 2.28575 372.913 2.20873 372.976 2.17726L373.299 2.01756C373.363 1.98609 373.44 2.01212 373.471 2.07571L376.363 8.03559L382.216 20.0977C382.222 20.1099 382.228 20.122 382.235 20.1341C382.304 20.2724 382.367 20.3963 382.226 20.4657C382.17 20.4937 382.128 20.4935 382.094 20.4746C382.043 20.4463 382.008 20.3755 381.969 20.2937C381.963 20.2819 381.957 20.2698 381.951 20.2577Z" fill="#29005F"/>
</g>
<g clip-path="url(#clip21_10_1664)">
<path fill-rule="evenodd" clip-rule="evenodd" d="M391.992 0.998222L399.023 19.7553L399.023 19.7554C399.048 19.8217 399.123 19.8548 399.189 19.8293L399.525 19.7005C399.591 19.675 399.624 19.6006 399.599 19.5343L392.271 0.863752C392.266 0.850815 392.261 0.838039 392.256 0.825517C392.203 0.683976 392.162 0.574798 392.016 0.630894C391.87 0.687011 391.921 0.815994 391.977 0.960182C391.982 0.972759 391.987 0.985452 391.992 0.998222ZM393.058 0.546179L402.092 18.4534L402.092 18.4536C402.124 18.5173 402.098 18.5944 402.034 18.6258L401.712 18.7856C401.648 18.817 401.571 18.791 401.539 18.7274L398.647 12.7678L392.793 0.706174C392.787 0.693964 392.781 0.681837 392.774 0.669819C392.705 0.531442 392.642 0.407588 392.783 0.338157C392.839 0.310173 392.881 0.310386 392.915 0.329268C392.966 0.357602 393.001 0.428325 393.04 0.510165C393.046 0.521971 393.052 0.534006 393.058 0.546179Z" fill="#29005F"/>
</g>
<g clip-path="url(#clip22_10_1664)">
<path fill-rule="evenodd" clip-rule="evenodd" d="M419.351 19.8057L412.322 1.04806L412.322 1.048C412.297 0.981709 412.222 0.948544 412.156 0.97401L411.82 1.10287C411.753 1.12833 411.72 1.20268 411.746 1.26897L419.073 19.9402C419.078 19.9531 419.082 19.9659 419.087 19.9784C419.14 20.12 419.181 20.2291 419.327 20.1731C419.473 20.117 419.423 19.988 419.366 19.8438C419.361 19.8312 419.356 19.8185 419.351 19.8057ZM418.286 20.2577L409.253 2.34965L409.252 2.34954C409.221 2.28575 409.247 2.20873 409.311 2.17726L409.633 2.01756C409.697 1.98609 409.774 2.01212 409.806 2.07571L412.698 8.03559L418.551 20.0977C418.557 20.1099 418.563 20.122 418.569 20.1341C418.639 20.2724 418.701 20.3963 418.561 20.4657C418.504 20.4937 418.462 20.4935 418.428 20.4746C418.377 20.4463 418.343 20.3755 418.303 20.2937C418.297 20.2819 418.292 20.2698 418.286 20.2577Z" fill="#29005F"/>
</g>
<g clip-path="url(#clip23_10_1664)">
<path fill-rule="evenodd" clip-rule="evenodd" d="M428.326 0.998221L435.357 19.7553L435.357 19.7554C435.383 19.8217 435.457 19.8548 435.523 19.8293L435.859 19.7005C435.926 19.675 435.959 19.6006 435.933 19.5343L428.605 0.86375C428.6 0.850813 428.595 0.838037 428.591 0.825515C428.538 0.683974 428.497 0.574797 428.351 0.630893C428.204 0.687011 428.255 0.815993 428.311 0.960181C428.316 0.972758 428.321 0.985451 428.326 0.998221ZM429.392 0.54618L438.427 18.4534L438.427 18.4536C438.458 18.5173 438.432 18.5944 438.368 18.6258L438.046 18.7856C437.982 18.817 437.905 18.791 437.874 18.7274L434.981 12.7678L429.127 0.706174C429.121 0.693964 429.115 0.681837 429.109 0.66982C429.039 0.531443 428.976 0.407588 429.117 0.338157C429.173 0.310173 429.215 0.310386 429.249 0.329268C429.301 0.357603 429.335 0.428325 429.375 0.510166C429.38 0.521971 429.386 0.534007 429.392 0.54618Z" fill="#29005F"/>
</g>
</g>
<defs>
<filter id="filter0_d_10_1664" x="0" y="-1.52588e-05" width="448" height="28.804" filterUnits="userSpaceOnUse" color-interpolation-filters="sRGB">
<feFlood flood-opacity="0" result="BackgroundImageFix"/>
<feColorMatrix in="SourceAlpha" type="matrix" values="0 0 0 0 0 0 0 0 0 0 0 0 0 0 0 0 0 0 127 0" result="hardAlpha"/>
<feOffset dy="4"/>
<feGaussianBlur stdDeviation="2"/>
<feComposite in2="hardAlpha" operator="out"/>
<feColorMatrix type="matrix" values="0 0 0 0 0 0 0 0 0 0 0 0 0 0 0 0 0 0 0.25 0"/>
<feBlend mode="normal" in2="BackgroundImageFix" result="effect1_dropShadow_10_1664"/>
<feBlend mode="normal" in="SourceGraphic" in2="effect1_dropShadow_10_1664" result="shape"/>
</filter>
<filter id="filter1_d_10_1664" x="199.839" y="-1.52588e-05" width="30.1543" height="28.8032" filterUnits="userSpaceOnUse" color-interpolation-filters="sRGB">
<feFlood flood-opacity="0" result="BackgroundImageFix"/>
<feColorMatrix in="SourceAlpha" type="matrix" values="0 0 0 0 0 0 0 0 0 0 0 0 0 0 0 0 0 0 127 0" result="hardAlpha"/>
<feOffset dy="4"/>
<feGaussianBlur stdDeviation="2"/>
<feComposite in2="hardAlpha" operator="out"/>
<feColorMatrix type="matrix" values="0 0 0 0 0 0 0 0 0 0 0 0 0 0 0 0 0 0 0.25 0"/>
<feBlend mode="normal" in2="BackgroundImageFix" result="effect1_dropShadow_10_1664"/>
<feBlend mode="normal" in="SourceGraphic" in2="effect1_dropShadow_10_1664" result="shape"/>
</filter>
<clipPath id="clip0_10_1664">
<rect width="17.5303" height="14.0853" fill="white" transform="translate(10.8082) rotate(28.9048)"/>
</clipPath>
<clipPath id="clip1_10_1664">
<rect width="17.5303" height="14.0853" fill="white" transform="translate(37.5145 20.8032) rotate(-151.1)"/>
</clipPath>
<clipPath id="clip2_10_1664">
<rect width="17.5303" height="14.0853" fill="white" transform="translate(47.1426) rotate(28.9048)"/>
</clipPath>
<clipPath id="clip3_10_1664">
<rect width="17.5303" height="14.0853" fill="white" transform="translate(73.8489 20.8032) rotate(-151.1)"/>
</clipPath>
<clipPath id="clip4_10_1664">
<rect width="17.5303" height="14.0853" fill="white" transform="translate(83.477) rotate(28.9048)"/>
</clipPath>
<clipPath id="clip5_10_1664">
<rect width="17.5303" height="14.0853" fill="white" transform="translate(110.183 20.8032) rotate(-151.1)"/>
</clipPath>
<clipPath id="clip6_10_1664">
<rect width="17.5303" height="14.0853" fill="white" transform="translate(119.811) rotate(28.9048)"/>
</clipPath>
<clipPath id="clip7_10_1664">
<rect width="17.5303" height="14.0853" fill="white" transform="translate(146.518 20.8032) rotate(-151.1)"/>
</clipPath>
<clipPath id="clip8_10_1664">
<rect width="17.5303" height="14.0853" fill="white" transform="translate(156.146) rotate(28.9048)"/>
</clipPath>
<clipPath id="clip9_10_1664">
<rect width="17.5303" height="14.0853" fill="white" transform="translate(182.852 20.8032) rotate(-151.1)"/>
</clipPath>
<clipPath id="clip10_10_1664">
<rect width="17.5303" height="14.0853" fill="white" transform="translate(192.48) rotate(28.9048)"/>
</clipPath>
<clipPath id="clip11_10_1664">
<rect width="17.5303" height="14.0853" fill="white" transform="translate(219.186 20.8032) rotate(-151.1)"/>
</clipPath>
<clipPath id="clip12_10_1664">
<rect width="17.5303" height="14.0853" fill="white" transform="translate(228.815) rotate(28.9048)"/>
</clipPath>
<clipPath id="clip13_10_1664">
<rect width="17.5303" height="14.0853" fill="white" transform="translate(255.521 20.8032) rotate(-151.1)"/>
</clipPath>
<clipPath id="clip14_10_1664">
<rect width="17.5303" height="14.0853" fill="white" transform="translate(265.149) rotate(28.9048)"/>
</clipPath>
<clipPath id="clip15_10_1664">
<rect width="17.5303" height="14.0853" fill="white" transform="translate(291.855 20.8032) rotate(-151.1)"/>
</clipPath>
<clipPath id="clip16_10_1664">
<rect width="17.5303" height="14.0853" fill="white" transform="translate(301.483) rotate(28.9048)"/>
</clipPath>
<clipPath id="clip17_10_1664">
<rect width="17.5303" height="14.0853" fill="white" transform="translate(328.19 20.8032) rotate(-151.1)"/>
</clipPath>
<clipPath id="clip18_10_1664">
<rect width="17.5303" height="14.0853" fill="white" transform="translate(337.818) rotate(28.9048)"/>
</clipPath>
<clipPath id="clip19_10_1664">
<rect width="17.5303" height="14.0853" fill="white" transform="translate(364.524 20.8032) rotate(-151.1)"/>
</clipPath>
<clipPath id="clip20_10_1664">
<rect width="17.5303" height="14.0853" fill="white" transform="translate(374.152) rotate(28.9048)"/>
</clipPath>
<clipPath id="clip21_10_1664">
<rect width="17.5303" height="14.0853" fill="white" transform="translate(400.858 20.8032) rotate(-151.1)"/>
</clipPath>
<clipPath id="clip22_10_1664">
<rect width="17.5303" height="14.0853" fill="white" transform="translate(410.487) rotate(28.9048)"/>
</clipPath>
<clipPath id="clip23_10_1664">
<rect width="17.5303" height="14.0853" fill="white" transform="translate(437.193 20.8032) rotate(-151.1)"/>
</clipPath>
</defs>
</svg>
